{
  "accessors": [
    {
      "bufferView": 1,
      "componentType": 5126,
      "count": 65532,
      "max": [
        1.1437535285949707,
        0.908210039138794,
        1.2844029664993286
      ],
      "min": [
        -1.284402847290039,
        -1.2844030857086182,
        -1.2844029664993286
      ],
      "type": "VEC3"
    },
    {
      "bufferView": 1,
      "byteOffset": 786384,
      "componentType": 5126,
      "count": 65532,
      "max": [
        0.8836647272109985,
        0.6987135410308838,
        0.9998387098312378
      ],
      "min": [
        -0.9998387098312378,
        -0.9998387098312378,
        -0.9998387098312378
      ],
      "type": "VEC3"
    },
    {
      "bufferView": 0,
      "componentType": 5125,
      "count": 98298,
      "type": "SCALAR"
    },
    {
      "bufferView": 1,
      "byteOffset": 1572768,
      "componentType": 5126,
      "count": 32772,
      "max": [
        1.2844030857086182,
        1.284402847290039,
        0.908210039138794
      ],
      "min": [
        -1.0795772075653076,
        -1.0451695919036865,
        -0.908210039138794
      ],
      "type": "VEC3"
    },
    {
      "bufferView": 1,
      "byteOffset": 1966032,
      "componentType": 5126,
      "count": 32772,
      "max": [
        0.9998387098312378,
        0.9998387098312378,
        0.6987135410308838
      ],
      "min": [
        -0.8339745402336121,
        -0.8067244291305542,
        -0.6987135410308838
      ],
      "type": "VEC3"
    },
    {
      "bufferView": 0,
      "byteOffset": 393192,
      "componentType": 5125,
      "count": 49158,
      "type": "SCALAR"
    }
  ],
  "asset": {
    "extras": {
      "author": "sketchfab-migration (https://sketchfab.com/sketchfab-migration)",
      "license": "SKETCHFAB Standard (https://sketchfab.com/licenses)",
      "source": "https://sketchfab.com/3d-models/sphere-c0c4239f106943e59c13cd624a6e6c8f",
      "title": "Sphere"
    },
    "generator": "Sketchfab-16.0.0",
    "version": "2.0"
  },
  "bufferViews": [
    {
      "buffer": 0,
      "byteLength": 589824,
      "name": "floatBufferViews",
      "target": 34963
    },
    {
      "buffer": 0,
      "byteLength": 2359296,
      "byteOffset": 589824,
      "byteStride": 12,
      "name": "floatBufferViews",
      "target": 34962
    }
  ],
  "buffers": [
    {
      "byteLength": 2949120,
      "uri": "scene.bin"
    }
  ],
  "materials": [
    {
      "doubleSided": true,
      "name": "Material",
      "pbrMetallicRoughness": {
        "baseColorFactor": [
          0.8,
          0.8,
          0.8,
          1.0
        ],
        "metallicFactor": 0.0,
        "roughnessFactor": 0.5
      }
    }
  ],
  "meshes": [
    {
      "name": "Object_0",
      "primitives": [
        {
          "attributes": {
            "NORMAL": 1,
            "POSITION": 0
          },
          "indices": 2,
          "material": 0,
          "mode": 4
        }
      ]
    },
    {
      "name": "Object_1",
      "primitives": [
        {
          "attributes": {
            "NORMAL": 4,
            "POSITION": 3
          },
          "indices": 5,
          "material": 0,
          "mode": 4
        }
      ]
    }
  ],
  "nodes": [
    {
      "children": [
        1
      ],
      "matrix": [
        1.0,
        0.0,
        0.0,
        0.0,
        0.0,
        2.220446049250313e-16,
        -1.0,
        0.0,
        0.0,
        1.0,
        2.220446049250313e-16,
        0.0,
        0.0,
        0.0,
        0.0,
        1.0
      ],
      "name": "Sketchfab_model"
    },
    {
      "children": [
        2
      ],
      "name": "root"
    },
    {
      "children": [
        3
      ],
      "matrix": [
        1.0,
        0.0,
        0.0,
        0.0,
        0.0,
        2.220446049250313e-16,
        1.0,
        0.0,
        0.0,
        -1.0,
        2.220446049250313e-16,
        0.0,
        0.0,
        0.0,
        0.0,
        1.0
      ],
      "name": "GLTF_SceneRootNode"
    },
    {
      "children": [
        4,
        5
      ],
      "name": "Quad Sphere_0"
    },
    {
      "mesh": 0,
      "name": "Object_4"
    },
    {
      "mesh": 1,
      "name": "Object_5"
    }
  ],
  "scene": 0,
  "scenes": [
    {
      "name": "Sketchfab_Scene",
      "nodes": [
        0
      ]
    }
  ]
}
