{
  "accessors": [
    {
      "bufferView": 2,
      "componentType": 5126,
      "count": 31013,
      "max": [
        1.9266821146011353,
        1.1153582334518433,
        3.590304374694824
      ],
      "min": [
        -1.9266821146011353,
        -1.6013522148132324,
        -4.379095554351807
      ],
      "type": "VEC3"
    },
    {
      "bufferView": 2,
      "byteOffset": 372156,
      "componentType": 5126,
      "count": 31013,
      "max": [
        1.0,
        1.0,
        1.0
      ],
      "min": [
        -1.0,
        -1.0,
        -1.0
      ],
      "type": "VEC3"
    },
    {
      "bufferView": 3,
      "componentType": 5126,
      "count": 31013,
      "max": [
        1.0,
        1.0,
        1.0,
        1.0
      ],
      "min": [
        -1.0,
        -1.0,
        -1.0,
        -1.0
      ],
      "type": "VEC4"
    },
    {
      "bufferView": 1,
      "componentType": 5126,
      "count": 31013,
      "max": [
        0.9947288036346436,
        0.9947543144226074
      ],
      "min": [
        0.005245685577392578,
        0.005245685577392578
      ],
      "type": "VEC2"
    },
    {
      "bufferView": 1,
      "byteOffset": 248104,
      "componentType": 5126,
      "count": 31013,
      "max": [
        0.9947288036346436,
        0.9947543144226074
      ],
      "min": [
        0.005245685577392578,
        0.005245685577392578
      ],
      "type": "VEC2"
    },
    {
      "bufferView": 1,
      "byteOffset": 496208,
      "componentType": 5126,
      "count": 31013,
      "max": [
        0.9947288036346436,
        0.9947543144226074
      ],
      "min": [
        0.005245685577392578,
        0.005245685577392578
      ],
      "type": "VEC2"
    },
    {
      "bufferView": 0,
      "componentType": 5125,
      "count": 122358,
      "type": "SCALAR"
    }
  ],
  "asset": {
    "extras": {
      "author": "caz747 (https://sketchfab.com/caz747)",
      "license": "SKETCHFAB Standard (https://sketchfab.com/licenses)",
      "source": "https://sketchfab.com/3d-models/attack-robot-d24d19b8cd874cb69cea6a64f03ea60c",
      "title": "Attack Robot"
    },
    "generator": "Sketchfab-15.49.0",
    "version": "2.0"
  },
  "bufferViews": [
    {
      "buffer": 0,
      "byteLength": 489432,
      "name": "floatBufferViews",
      "target": 34963
    },
    {
      "buffer": 0,
      "byteLength": 744312,
      "byteOffset": 489432,
      "byteStride": 8,
      "name": "floatBufferViews",
      "target": 34962
    },
    {
      "buffer": 0,
      "byteLength": 744312,
      "byteOffset": 1233744,
      "byteStride": 12,
      "name": "floatBufferViews",
      "target": 34962
    },
    {
      "buffer": 0,
      "byteLength": 496208,
      "byteOffset": 1978056,
      "byteStride": 16,
      "name": "floatBufferViews",
      "target": 34962
    }
  ],
  "buffers": [
    {
      "byteLength": 2474264,
      "uri": "scene.bin"
    }
  ],
  "images": [
    {
      "uri": "textures/Robot_baseColor.jpeg"
    },
    {
      "uri": "textures/Robot_metallicRoughness.png"
    },
    {
      "uri": "textures/Robot_normal.png"
    }
  ],
  "materials": [
    {
      "doubleSided": true,
      "name": "Robot",
      "normalTexture": {
        "index": 2
      },
      "pbrMetallicRoughness": {
        "baseColorTexture": {
          "index": 0
        },
        "metallicRoughnessTexture": {
          "index": 1
        },
        "roughnessFactor": 0.8178547832021302
      }
    }
  ],
  "meshes": [
    {
      "name": "Mouth.001_Robot_0",
      "primitives": [
        {
          "attributes": {
            "NORMAL": 1,
            "POSITION": 0,
            "TANGENT": 2,
            "TEXCOORD_0": 3,
            "TEXCOORD_1": 4,
            "TEXCOORD_2": 5
          },
          "indices": 6,
          "material": 0,
          "mode": 4
        }
      ]
    }
  ],
  "nodes": [
    {
      "children": [
        1
      ],
      "matrix": [
        1.0,
        0.0,
        0.0,
        0.0,
        0.0,
        2.220446049250313e-16,
        -1.0,
        0.0,
        0.0,
        1.0,
        2.220446049250313e-16,
        0.0,
        0.0,
        0.0,
        0.0,
        1.0
      ],
      "name": "Sketchfab_model"
    },
    {
      "children": [
        2
      ],
      "matrix": [
        0.009999999776482582,
        0.0,
        0.0,
        0.0,
        0.0,
        0.0,
        0.009999999776482582,
        0.0,
        0.0,
        -0.009999999776482582,
        0.0,
        0.0,
        0.0,
        0.0,
        0.0,
        1.0
      ],
      "name": "cf1f493369d548a290c2ac50f85e4fdc.fbx"
    },
    {
      "children": [
        3
      ],
      "name": "RootNode"
    },
    {
      "children": [
        4
      ],
      "matrix": [
        100.0,
        0.0,
        0.0,
        0.0,
        0.0,
        -4.371139006309477e-06,
        -99.9999999999999,
        0.0,
        0.0,
        99.9999999999999,
        -4.371139006309477e-06,
        0.0,
        0.0,
        0.0,
        0.0,
        1.0
      ],
      "name": "Mouth.001"
    },
    {
      "mesh": 0,
      "name": "Mouth.001_Robot_0"
    }
  ],
  "samplers": [
    {
      "magFilter": 9729,
      "minFilter": 9987,
      "wrapS": 10497,
      "wrapT": 10497
    }
  ],
  "scene": 0,
  "scenes": [
    {
      "name": "Sketchfab_Scene",
      "nodes": [
        0
      ]
    }
  ],
  "textures": [
    {
      "sampler": 0,
      "source": 0
    },
    {
      "sampler": 0,
      "source": 1
    },
    {
      "sampler": 0,
      "source": 2
    }
  ]
}
